<svg xmlns="http://www.w3.org/2000/svg" xmlns:xlink="http://www.w3.org/1999/xlink" xmlns:fi="http://pattern.flaticon.com/" x="0" y="0" width="710" height="355" viewBox="0 0 710 355"><rect x="0px" y="0px" width="100%" height="100%" opacity="0" fill="#ffffff"/><defs><g transform="matrix(0.09203756104890956 0.03601469847885359 -0.03601469847885359 0.09203756104890956 232.6289745244215 18.295789949211844)" id="L1_0"><path d="M353.073,188.913c0-11.2-7.2-27.28-42.64-40.88c-3.958-1.964-8.758-0.348-10.723,3.609    c-1.964,3.958-0.348,8.758,3.609,10.723c0.558,0.277,1.146,0.488,1.753,0.628c20.4,8,32.64,17.44,32.64,25.92    c0,9.92-16.64,21.44-45.84,30.24V38.833c1.564-19.821-13.236-37.156-33.057-38.72c-1.885-0.149-3.778-0.149-5.663,0h-128.88    C104.453-1.45,87.117,13.35,85.553,33.17c-0.149,1.885-0.149,3.778,0,5.663v182.32c-33.68-8.88-52.64-21.44-52.64-32    c0-9.04,14.4-19.68,37.6-27.68c4.242-1.502,6.462-6.158,4.96-10.4c-1.502-4.242-6.158-6.462-10.4-4.96c-32,10.96-48,25.76-48,42.8    c0,23.52,30.64,39.28,68.64,48.72v93.68c-1.564,19.821,13.236,37.156,33.057,38.72c1.885,0.149,3.778,0.149,5.663,0h128.32    c19.821,1.564,37.156-13.236,38.72-33.057c0.149-1.885,0.149-3.778,0-5.663v-95.44    C326.353,226.353,353.073,210.993,353.073,188.913z M258.25,354.033c-1.824,0.251-3.673,0.251-5.496,0h-128.48    c-11.03,1.518-21.202-6.193-22.72-17.224c-0.251-1.824-0.251-3.673,0-5.496v-25.04h173.92v25.04    C276.991,342.343,269.28,352.516,258.25,354.033z M148.113,231.073c-15.654-1.056-31.229-3.059-46.64-6V62.033h174v161.28    c-11.935,2.694-24.006,4.75-36.16,6.16l12.72-15.36c2.593-3.577,1.796-8.579-1.781-11.173c-3.266-2.368-7.784-1.934-10.539,1.013    l-25.04,30.24c-0.212,0.332-0.399,0.68-0.56,1.04c-0.288,0.455-0.529,0.937-0.72,1.44c-0.258,0.968-0.419,1.96-0.48,2.96    c-0.048,0.505-0.048,1.014,0,1.52c0.085,0.492,0.219,0.975,0.4,1.44c0.247,0.482,0.541,0.938,0.88,1.36    c0.188,0.336,0.402,0.657,0.64,0.96l24.96,25.2c3.115,3.137,8.183,3.155,11.32,0.04c3.137-3.115,3.155-8.183,0.04-11.32    l-13.04-13.2c12.48-1.44,24.96-3.36,37.04-5.92v50.48h-173.68v-49.12c14.997,2.842,30.14,4.846,45.36,6h0.64    c4.418,0.177,8.143-3.262,8.32-7.68C155.97,234.975,152.532,231.25,148.113,231.073z M275.473,38.753v7.28h-174v-7.28    c-1.518-11.03,6.193-21.202,17.224-22.72c1.824-0.251,3.673-0.251,5.496,0h128.56c11.03-1.518,21.202,6.194,22.72,17.224    C275.724,35.08,275.724,36.93,275.473,38.753z" fill="#858585"/><path d="M210.273,319.713h-44.48c-4.418,0-8,3.582-8,8s3.582,8,8,8h44.48c4.418,0,8-3.582,8-8S214.692,319.713,210.273,319.713z" fill="#858585"/></g><g transform="matrix(0.07159467028559148 0.03579733647887931 -0.03579733647887931 0.07159467028559148 201.1633484033045 191.56550398980977)" id="L1_1"><path d="M325.297,120.844c-0.005,0-0.011,0-0.017,0h-58.16v-19.76c0-4.418-3.582-8-8-8h-81.6c-4.418,0-8,3.582-8,8v19.76h-58.16    C49.858,120.844,0,170.702,0,232.204s49.858,111.36,111.36,111.36h213.92c61.502,0.005,111.364-49.849,111.368-111.352    S386.799,120.849,325.297,120.844z M185.52,109.084h65.6v11.76h-65.6V109.084z M325.28,327.644H111.36    c-52.666,0-95.36-42.694-95.36-95.36s42.694-95.36,95.36-95.36h213.92c52.666,0,95.36,42.694,95.36,95.36    S377.946,327.644,325.28,327.644z"/><circle cx="331" cy="188" r="20"/><circle cx="331" cy="279" r="20"/><circle cx="376" cy="233" r="20"/><circle cx="285" cy="233" r="20"/><path d="M239.36,152.764h-42.08c-4.418,0-8,3.582-8,8s3.582,8,8,8h42.08c4.418,0,8-3.582,8-8S243.778,152.764,239.36,152.764z"/><path d="M163.12,206.604h-34v-34c0-4.418-3.582-8-8-8h-38.8c-4.418,0-8,3.582-8,8v33.92h-33.6c-4.418,0-8,3.582-8,8v38.48    c0,4.418,3.582,8,8,8h33.6v33.92c0,4.418,3.582,8,8,8h38.48c4.418,0,8-3.582,8-8v-33.92h34.32c4.418,0,8-3.582,8-8v-38.4    C171.12,210.186,167.538,206.604,163.12,206.604z M155.12,245.084h-34c-4.418,0-8,3.582-8,8v33.92h-22.8v-34c0-4.418-3.582-8-8-8    h-33.6v-22.4h33.6c4.418,0,8-3.582,8-8v-34h22.48v33.92c0,4.418,3.582,8,8,8h34.32V245.084z"/></g><g transform="matrix(0.08901837981328355 0.08901837981328355 -0.08901837981328355 0.08901837981328355 140.99281683564186 38.260677978005155)" id="L1_2"><path d="M299.6,165.2c-0.506-0.827-1.013-1.654-1.52-2.48l-21.52-23.2c-3.032-3.192-8.072-3.335-11.28-0.32    c-3.215,3.009-3.394,8.051-0.4,11.28l16.48,17.76L264.88,186c-3.226,3.019-3.394,8.081-0.375,11.307s8.081,3.394,11.307,0.375    c0.267-0.25,0.517-0.518,0.748-0.803l21.52-23.2c0.507-0.827,1.013-1.654,1.52-2.48C300.214,169.247,300.214,167.153,299.6,165.2z    "/><path d="M52.72,168.32l16.48-17.76c3.028-3.218,2.873-8.281-0.345-11.308c-0.018-0.017-0.037-0.034-0.055-0.052    c-3.229-2.994-8.271-2.815-11.28,0.4L36,162.8c-0.507,0.826-1.014,1.653-1.52,2.48c-0.614,1.953-0.614,4.047,0,6    c0.507,0.827,1.013,1.653,1.52,2.48l21.52,23.2c3.226,3.019,8.289,2.851,11.307-0.375c2.73-2.917,2.889-7.402,0.373-10.505    L52.72,168.32z"/><path d="M195.68,57.44l-23.2-21.52c-0.828-0.504-1.655-1.011-2.48-1.52c-0.479-0.043-0.961-0.043-1.44,0    c-0.988-0.318-2.052-0.318-3.04,0c-0.479-0.043-0.961-0.043-1.44,0c-0.825,0.509-1.652,1.016-2.48,1.52l-23.2,21.52    c-3.053,3.194-2.938,8.258,0.256,11.311c1.403,1.341,3.245,2.126,5.184,2.209c2.021-0.007,3.965-0.779,5.44-2.16l17.76-16.16    l17.76,16.48c3.432,2.783,8.47,2.257,11.253-1.175C198.569,64.842,198.41,60.357,195.68,57.44z"/><path d="M195.385,265.172c-2.917-2.73-7.401-2.889-10.505-0.372h-0.08l-17.76,16.48l-17.76-16.48    c-3.432-2.783-8.47-2.257-11.253,1.175c-2.516,3.103-2.357,7.588,0.372,10.505L161.6,298c0.494,0.381,1.031,0.703,1.6,0.96    l0.88,0.56c1.924,0.778,4.076,0.778,6,0l0.88-0.56c0.569-0.256,1.106-0.579,1.6-0.96l23.2-21.52    C198.779,273.254,198.611,268.191,195.385,265.172z"/><path d="M167.04,0C74.786,0,0,74.786,0,167.04s74.786,167.04,167.04,167.04s167.04-74.786,167.04-167.04c0-0.027,0-0.053,0-0.08    C333.948,74.774,259.226,0.088,167.04,0z M167.04,318C83.623,318,16,250.377,16,166.96S83.623,15.92,167.04,15.92    s151.04,67.623,151.04,151.04C317.992,250.34,250.421,317.912,167.04,318z"/><path d="M167.04,125.28c-23.019,0-41.68,18.661-41.68,41.68s18.661,41.68,41.68,41.68s41.68-18.661,41.68-41.68    S190.059,125.28,167.04,125.28z M167.04,192.64c-14.183,0-25.68-11.497-25.68-25.68s11.497-25.68,25.68-25.68    s25.68,11.497,25.68,25.68S181.223,192.64,167.04,192.64z"/></g><g transform="matrix(0.016006528691263754 -0.1280522493252857 0.1280522493252857 0.016006528691263754 159.34787968904746 280.72589150940564)"><path d="M353.073,188.913c0-11.2-7.2-27.28-42.64-40.88c-3.958-1.964-8.758-0.348-10.723,3.609    c-1.964,3.958-0.348,8.758,3.609,10.723c0.558,0.277,1.146,0.488,1.753,0.628c20.4,8,32.64,17.44,32.64,25.92    c0,9.92-16.64,21.44-45.84,30.24V38.833c1.564-19.821-13.236-37.156-33.057-38.72c-1.885-0.149-3.778-0.149-5.663,0h-128.88    C104.453-1.45,87.117,13.35,85.553,33.17c-0.149,1.885-0.149,3.778,0,5.663v182.32c-33.68-8.88-52.64-21.44-52.64-32    c0-9.04,14.4-19.68,37.6-27.68c4.242-1.502,6.462-6.158,4.96-10.4c-1.502-4.242-6.158-6.462-10.4-4.96c-32,10.96-48,25.76-48,42.8    c0,23.52,30.64,39.28,68.64,48.72v93.68c-1.564,19.821,13.236,37.156,33.057,38.72c1.885,0.149,3.778,0.149,5.663,0h128.32    c19.821,1.564,37.156-13.236,38.72-33.057c0.149-1.885,0.149-3.778,0-5.663v-95.44    C326.353,226.353,353.073,210.993,353.073,188.913z M258.25,354.033c-1.824,0.251-3.673,0.251-5.496,0h-128.48    c-11.03,1.518-21.202-6.193-22.72-17.224c-0.251-1.824-0.251-3.673,0-5.496v-25.04h173.92v25.04    C276.991,342.343,269.28,352.516,258.25,354.033z M148.113,231.073c-15.654-1.056-31.229-3.059-46.64-6V62.033h174v161.28    c-11.935,2.694-24.006,4.75-36.16,6.16l12.72-15.36c2.593-3.577,1.796-8.579-1.781-11.173c-3.266-2.368-7.784-1.934-10.539,1.013    l-25.04,30.24c-0.212,0.332-0.399,0.68-0.56,1.04c-0.288,0.455-0.529,0.937-0.72,1.44c-0.258,0.968-0.419,1.96-0.48,2.96    c-0.048,0.505-0.048,1.014,0,1.52c0.085,0.492,0.219,0.975,0.4,1.44c0.247,0.482,0.541,0.938,0.88,1.36    c0.188,0.336,0.402,0.657,0.64,0.96l24.96,25.2c3.115,3.137,8.183,3.155,11.32,0.04c3.137-3.115,3.155-8.183,0.04-11.32    l-13.04-13.2c12.48-1.44,24.96-3.36,37.04-5.92v50.48h-173.68v-49.12c14.997,2.842,30.14,4.846,45.36,6h0.64    c4.418,0.177,8.143-3.262,8.32-7.68C155.97,234.975,152.532,231.25,148.113,231.073z M275.473,38.753v7.28h-174v-7.28    c-1.518-11.03,6.193-21.202,17.224-22.72c1.824-0.251,3.673-0.251,5.496,0h128.56c11.03-1.518,21.202,6.194,22.72,17.224    C275.724,35.08,275.724,36.93,275.473,38.753z" fill="#858585"/><path d="M210.273,319.713h-44.48c-4.418,0-8,3.582-8,8s3.582,8,8,8h44.48c4.418,0,8-3.582,8-8S214.692,319.713,210.273,319.713z" fill="#858585"/></g><path d="M473.371,433.11c-10.657-3.997-20.458-6.563-29.407-7.706c-8.945-0.767-15.516-2.95-19.701-6.567   c-2.475-1.529-5.808-6.95-9.996-16.279c-7.806-15.604-13.989-29.786-18.555-42.537c-7.427-20.181-13.617-35.789-18.565-46.829   c-10.845-25.311-19.982-47.678-27.401-67.092c-4.001-10.466-15.797-38.731-35.405-84.796L255.813,24.265l-3.142-5.996h-15.129   h-21.414l-79.94,206.704L68.523,400.847c-5.33,9.896-9.9,16.372-13.706,19.417c-3.996,2.848-14.466,5.805-31.405,8.843   c-11.042,2.102-18.654,3.812-22.841,5.141L0,456.812h5.996c16.37,0,32.264-1.334,47.679-3.997l13.706-2.279   c53.868,3.806,87.082,5.708,99.642,5.708c0.381-1.902,0.571-4.476,0.571-7.706c0-5.715-0.094-11.231-0.287-16.563   c-3.996-0.568-7.851-1.143-11.561-1.711c-3.711-0.575-6.567-1.047-8.565-1.431c-1.997-0.373-3.284-0.568-3.855-0.568   c-14.657-2.094-24.46-5.14-29.407-9.134c-3.236-2.282-4.854-6.375-4.854-12.278c0-3.806,2.19-11.796,6.567-23.982   c14.277-39.776,24.172-65.856,29.692-78.224l128.483,0.568l26.269,65.096l13.411,32.541c1.144,3.241,1.711,6.283,1.711,9.138   s-1.14,5.428-3.426,7.707c-2.285,1.905-8.753,4.093-19.417,6.563l-37.404,7.994c-0.763,6.283-1.136,13.702-1.136,22.271   l16.56-0.575l57.103-3.138c10.656-0.38,23.51-0.575,38.547-0.575c18.264,0,36.251,0.763,53.957,2.282   c21.313,1.523,39.588,2.283,54.819,2.283c0.192-2.283,0.281-4.754,0.281-7.423C475.082,445.957,474.513,440.537,473.371,433.11z    M251.245,270.941c-2.666,0-7.662-0.052-14.989-0.144c-7.327-0.089-18.649-0.233-33.973-0.425   c-15.321-0.195-29.93-0.383-43.824-0.574l48.535-128.477c7.424,15.037,16.178,35.117,26.264,60.242   c11.425,27.79,20.179,50.727,26.273,68.809L251.245,270.941z" transform="matrix(0.07424747233228965 -0.01856186804286031 0.01856186804286031 0.07424747233228965 112.95185212079798 216.7716035718593)" id="L1_3" fill="#2c2e2c"/><g transform="matrix(0.07491871689881513 0.007491871803553029 -0.007491871803553029 0.07491871689881513 304.21940710366266 307.423061112461)" id="L1_4"><path d="M112.063,347.939c-3.06,3.672-6.12,8.568-9.792,11.628c-8.568,6.732-6.12,4.896-14.076-2.447    c-9.18-7.956-18.36-16.524-27.54-23.868c-17.136-14.076-34.884-27.54-53.856-39.168c-4.284-2.448-9.18,3.672-5.508,6.731    c28.152,23.256,55.692,47.124,83.232,70.38c17.136,14.688,24.48-1.224,36.108-16.523    C125.527,349.775,116.347,343.043,112.063,347.939z"/><path d="M156.739,145.367c0-1.224-0.612-1.836-1.224-2.448c-13.464-16.524-41.616-6.732-52.632,7.956    c-11.016,14.076-11.016,31.212-4.284,45.899c-14.076-4.896-31.824-1.835-42.228,6.732c-15.3,12.24-19.584,33.66-11.628,50.184    v0.612c9.792,53.856,93.636,52.632,131.58,44.064c3.672-0.612,2.448-6.12-0.612-6.12c-24.48,0-49.572,2.447-73.44-4.284    c-21.42-6.12-32.436-17.748-46.512-31.824c-6.12-14.688-4.284-33.66,9.18-43.452c6.732-4.284,14.688-6.12,22.644-4.896    c9.792,1.224,15.912,6.731,23.868,11.016c3.06,1.836,7.344-1.224,6.12-4.896c-1.224-3.673-3.672-7.345-6.732-9.792    c-6.12-14.076-7.956-31.212,0-44.064c9.18-14.076,24.48-14.688,38.556-10.404c33.66,40.392,37.332,83.844,40.392,135.864    c0.612,7.344,10.404,6.732,11.016,0C205.699,233.496,201.415,177.191,156.739,145.367z"/><path d="M309.739,169.235c-26.928-44.676-73.44-79.56-110.16-116.28c-5.508-5.508-14.076,3.06-8.568,8.568    c31.212,30.6,72.828,61.812,99.145,99.144c-42.229-15.912-87.517-28.152-127.296-48.348c-5.508-3.06-10.404,4.896-4.896,8.568    c41.003,28.152,97.919,41.616,145.043,56.916C308.516,179.639,312.188,173.519,309.739,169.235z"/><path d="M367.268,87.227c-13.465,11.628-23.257,28.152-41.616,18.36c-7.344-3.672-14.076-10.404-21.42-17.136c0,0,0,0,0.611,0    c6.12,0,9.181-6.12,13.464-9.792c4.284-3.672,9.793-6.732,12.853-11.628c3.06-3.672-1.836-9.18-6.12-7.956    c-6.12,1.836-11.016,6.732-14.688,11.628c-3.673,4.284-9.792,9.792-7.956,15.3c-4.284-4.284-8.568-8.568-12.853-11.628    c-22.032-17.136-44.063-33.048-67.932-47.124c0.611-0.612,1.224-1.224,1.836-2.448c1.224-1.836,2.448-3.672,3.672-5.508    c3.06-3.672,7.956-6.12,10.404-9.792c2.447-4.284-1.836-8.568-6.12-7.956c-5.508,1.224-9.792,6.732-12.853,11.628    c-2.447,3.672-4.896,8.568-4.283,12.852c-2.448,1.836-3.673,5.508,0,7.956c37.331,28.152,72.827,58.752,110.159,87.516    c21.42,17.136,36.721-9.792,52.632-26.316C381.955,90.287,373.387,81.719,367.268,87.227z"/></g><g transform="matrix(5.2805493199372686e-18 0.08623791486024857 -0.08623791486024857 5.2805493199372686e-18 364.29886031813226 195.73472001185928)"><path d="M112.063,347.939c-3.06,3.672-6.12,8.568-9.792,11.628c-8.568,6.732-6.12,4.896-14.076-2.447    c-9.18-7.956-18.36-16.524-27.54-23.868c-17.136-14.076-34.884-27.54-53.856-39.168c-4.284-2.448-9.18,3.672-5.508,6.731    c28.152,23.256,55.692,47.124,83.232,70.38c17.136,14.688,24.48-1.224,36.108-16.523    C125.527,349.775,116.347,343.043,112.063,347.939z"/><path d="M156.739,145.367c0-1.224-0.612-1.836-1.224-2.448c-13.464-16.524-41.616-6.732-52.632,7.956    c-11.016,14.076-11.016,31.212-4.284,45.899c-14.076-4.896-31.824-1.835-42.228,6.732c-15.3,12.24-19.584,33.66-11.628,50.184    v0.612c9.792,53.856,93.636,52.632,131.58,44.064c3.672-0.612,2.448-6.12-0.612-6.12c-24.48,0-49.572,2.447-73.44-4.284    c-21.42-6.12-32.436-17.748-46.512-31.824c-6.12-14.688-4.284-33.66,9.18-43.452c6.732-4.284,14.688-6.12,22.644-4.896    c9.792,1.224,15.912,6.731,23.868,11.016c3.06,1.836,7.344-1.224,6.12-4.896c-1.224-3.673-3.672-7.345-6.732-9.792    c-6.12-14.076-7.956-31.212,0-44.064c9.18-14.076,24.48-14.688,38.556-10.404c33.66,40.392,37.332,83.844,40.392,135.864    c0.612,7.344,10.404,6.732,11.016,0C205.699,233.496,201.415,177.191,156.739,145.367z"/><path d="M309.739,169.235c-26.928-44.676-73.44-79.56-110.16-116.28c-5.508-5.508-14.076,3.06-8.568,8.568    c31.212,30.6,72.828,61.812,99.145,99.144c-42.229-15.912-87.517-28.152-127.296-48.348c-5.508-3.06-10.404,4.896-4.896,8.568    c41.003,28.152,97.919,41.616,145.043,56.916C308.516,179.639,312.188,173.519,309.739,169.235z"/><path d="M367.268,87.227c-13.465,11.628-23.257,28.152-41.616,18.36c-7.344-3.672-14.076-10.404-21.42-17.136c0,0,0,0,0.611,0    c6.12,0,9.181-6.12,13.464-9.792c4.284-3.672,9.793-6.732,12.853-11.628c3.06-3.672-1.836-9.18-6.12-7.956    c-6.12,1.836-11.016,6.732-14.688,11.628c-3.673,4.284-9.792,9.792-7.956,15.3c-4.284-4.284-8.568-8.568-12.853-11.628    c-22.032-17.136-44.063-33.048-67.932-47.124c0.611-0.612,1.224-1.224,1.836-2.448c1.224-1.836,2.448-3.672,3.672-5.508    c3.06-3.672,7.956-6.12,10.404-9.792c2.447-4.284-1.836-8.568-6.12-7.956c-5.508,1.224-9.792,6.732-12.853,11.628    c-2.447,3.672-4.896,8.568-4.283,12.852c-2.448,1.836-3.673,5.508,0,7.956c37.331,28.152,72.827,58.752,110.159,87.516    c21.42,17.136,36.721-9.792,52.632-26.316C381.955,90.287,373.387,81.719,367.268,87.227z"/></g><g transform="matrix(0.14258264005184174 0 0 0.14258264005184174 300.8625593185425 124.75732570463367)" id="L1_5"><path d="M173.031,29.851c-58.7-7.3-140.1,2.5-165.4,65.9c-10.6,26.4-12.9,63.9,11.2,84.9c28.3,24.6,65.6,19.7,100.6,21.1l0,0    c0.8,16.101,5.6,33.2,10.5,48.2c1.7,5.3,7.9,5.5,11,1.4c6.201-8.2,8.9-18.801,11.5-28.601c1.3-5,4.899-12.8,4.6-18.7    c0.7,0,1.3,0,2.101-0.3c47-17.3,114.199-0.399,122.199-66.5C289.031,74.351,227.132,36.55,173.031,29.851z M263.531,157.45    c-14.7,33.2-78.5,23-107.7,34.1c-3.1,1.2-4.3,4-4.199,6.601c-7.301,1.3-8.101,10.399-9.601,16.5c-1.4,5.5-2.7,11.3-4.6,16.899    c-3.2-12.8-5.9-25.8-11.1-37.6c-1.2-2.7-4.5-2.2-6.1-0.3c-20.3-4.7-40-5-60.6-7.9c-61.1-8.399-52.1-75.7-23.7-109.8    c32.5-39,98.5-40.1,144.201-32.4C232.031,52.351,289.632,98.45,263.531,157.45z"/><path d="M90.331,91.25c-1.6-4.3-7.4-5.6-10-1.3c-5,8.3-3.6,21.5-4.1,30.8c-0.3,5.1-0.7,10.6-1,16.1c-5.1,0.8-10.1,1.2-15.3,1.6    c0-4.1-0.1-8.2-0.1-12.3c0-6.7,0.3-13.5,0.6-20.2c0.1-2.9,0.4-5.8,0.9-8.7c0.8-4.3,1.8-3.1-0.9-1.8c3.4-1.7,3.6-7.6,0-9.3    c-21.3-9.6-12.4,67.3-11.7,77c0.5,7,10.5,7,10.8,0c0.3-5.101,0.3-10.101,0.3-15.2c5,0.3,10.1,0.4,15.2,0.2    c0.2,5.5,0.9,10.8,2.5,15.7c0.6,1.899,2.2,3.899,4.3,4.3c2.1,0.399,4.4,0.3,6.1-1c1.2-0.9,1.3-2.2,0.8-3.101    c1.1-3.899,0.3-7.8,0.1-12.199c-0.2-8.5,0.1-17.1,0.5-25.6C90.131,115.75,94.131,101.25,90.331,91.25z"/><path d="M125.131,92.25c-0.1-0.2-0.3-0.4-0.4-0.6c-1.7-2.3-3.6-2.9-6.3-2.6c-3.2,0.4-6.5,0.5-9.8,0.7c-1.6-0.9-3.9-0.4-4.7,1.4    c-1.5,1.3-1.8,3.5-1.1,5.2c-3.6,22.5-3.9,46.1-4.1,68.699c0,3.7,2.9,5.9,6.2,6.2c8.5,0.9,19.8-0.7,19.1-11.7    c-0.2-3.399-3.7-5.8-6.9-4c-2.4,1.4-4,2.4-5.8,2.9c0.1-4,0.2-8,0.4-12c1.4,0.2,2.8,0.3,4.1,0.5c2.8,0.4,4.7-0.3,6.4-2.6l0.1-0.101    c1-1.3,1-4.1,0-5.399l-0.1-0.1c-1.7-2.2-3.6-3-6.4-2.6c-1.2,0.2-2.5,0.3-3.8,0.4c0.4-12.5,0.5-25-0.9-37.2    c2.4,0.1,4.9,0.2,7.2,0.6c2.7,0.4,4.7-0.3,6.3-2.6c0.1-0.2,0.3-0.4,0.4-0.6C125.931,95.65,125.931,93.45,125.131,92.25z"/><path d="M155.331,154.25c-2.6-0.8-5.3-1.2-8-1.7c-0.399-19.299-1.699-38.899-4-58c-0.6-5.2-7.5-5.2-8.1,0    c-2.3,20.9-0.6,42.4-0.6,63.3c0,2.899,2,5.399,4.7,6.199c5.4,1.5,10.4,2.7,15.9,1.101    C160.831,163.55,160.632,155.851,155.331,154.25z"/><path d="M183.632,158.55c-1.301,0.601-2.4,1.4-3.5,1.9c0.1-21.8,0.699-43.9-4.5-65.2c-1-4.2-7.601-3.3-7.5,1    c0.699,23.6-0.4,47-0.801,70.6c0,3,2,5.199,4.7,6.199c8,3,15.5,1.301,19.101-7C193.331,161.05,188.932,156.05,183.632,158.55z"/><path d="M220.731,98.65c-3.9-5.3-12-2-11.8,3.2c-0.2,0-0.3,0-0.601,0c-2.8-0.1-4.1,2.4-5.3,4.4c-3.899,6.7-5.8,15.2-7.6,22.6    c-2.9,11.9-6.3,31.8,6.5,39.199c14.8,8.601,24.6-10.8,26.2-22.1C230.231,131.95,229.531,110.55,220.731,98.65z M214.831,149.05    c-0.6,2.5-4.699,11.4-7.8,6.5c-5-8,0.101-24.199,2-32.5c1-4.3,2.101-8.6,3.3-12.9c0-0.1,0-0.2,0.101-0.3c2.8,7,3.5,15.5,3.8,22.5    C216.531,137.851,216.132,143.55,214.831,149.05z"/></g><path d="M277.73,94.123c0,10.997-8.006,17.685-13.852,22.593c-2.214,1.859-6.335,5.251-6.324,6.518  c0.04,4.97-3.956,8.939-8.927,8.939c-0.025,0-0.05,0-0.075,0c-4.936,0-8.958-3.847-8.998-8.792  c-0.079-9.747,7.034-15.584,12.75-20.383c4.485-3.766,7.426-6.416,7.426-8.841c0-4.909-3.994-8.903-8.903-8.903  c-4.911,0-8.906,3.994-8.906,8.903c0,4.971-4.029,9-9,9s-9-4.029-9-9c0-14.834,12.069-26.903,26.904-26.903  C265.661,67.253,277.73,79.288,277.73,94.123z M248.801,140.481c-4.971,0-8.801,4.029-8.801,9v0.069  c0,4.971,3.831,8.966,8.801,8.966s9-4.064,9-9.035S253.772,140.481,248.801,140.481z M67.392,203.174c-4.971,0-9,4.029-9,9  s4.029,9,9,9h0.75c4.971,0,9-4.029,9-9s-4.029-9-9-9H67.392z M98.671,203.174c-4.971,0-9,4.029-9,9s4.029,9,9,9h0.749  c4.971,0,9-4.029,9-9s-4.029-9-9-9H98.671z M363,59.425v101.301c0,23.985-19.232,43.448-43.217,43.448H203.066  c-2.282,0-4.161-0.013-5.733-0.046c-1.647-0.034-3.501-0.047-4.224,0.033c-0.753,0.5-2.599,2.191-4.378,3.83  c-0.705,0.649-1.503,1.363-2.364,2.149l-33.022,30.098c-2.634,2.403-6.531,3.025-9.793,1.587c-3.262-1.439-5.552-4.669-5.552-8.234  v-95.417H43.72c-14.062,0-25.72,11.523-25.72,25.583v101.301c0,14.061,11.659,25.116,25.72,25.116h130.374  c2.245,0,4.345,1.031,6.003,2.545L207,317.523v-85.539c0-4.971,4.029-9,9-9s9,4.029,9,9v105.938c0,3.565-2.04,6.747-5.303,8.186  c-1.167,0.515-2.339,0.718-3.566,0.718c-2.204,0-4.378-0.905-6.069-2.449l-39.457-36.204H43.72c-23.986,0-43.72-19.13-43.72-43.116  V163.757c0-23.985,19.734-43.583,43.72-43.583H138V59.425c0-23.986,19.885-43.251,43.871-43.251h137.913  C343.768,16.174,363,35.439,363,59.425z M345,59.425c0-14.061-11.157-25.251-25.217-25.251H181.871  C167.81,34.174,156,45.364,156,59.425v69.833v83.934l18.095-16.353c0.838-0.765,1.777-1.465,2.462-2.097  c8.263-7.614,10.377-8.831,21.155-8.609c1.47,0.031,3.221,0.042,5.354,0.042h116.717c14.06,0,25.217-11.388,25.217-25.448V59.425z" transform="matrix(0.1652892529964447 0 0 0.1652892529964447 213 83)" id="L1_6"/><g transform="matrix(0.048263768149249875 -0.048263768149249875 0.048263768149249875 0.048263768149249875 260.2537194726264 209.05029980453676)" id="L1_7"><path d="M122.789,195.922c4.142,0,7.5-3.358,7.5-7.5c0-5.538,4.506-10.044,10.044-10.044s10.044,4.506,10.044,10.044     c0,4.142,3.358,7.5,7.5,7.5c4.142,0,7.5-3.358,7.5-7.5c0-13.809-11.235-25.044-25.044-25.044     c-13.81,0-25.044,11.235-25.044,25.044C115.289,192.563,118.646,195.922,122.789,195.922z"/><path d="M69.762,169.527c0,38.913,31.658,70.57,70.57,70.57c38.913,0,70.571-31.658,70.571-70.57v-28.765     c0-6.933-5.64-12.572-12.572-12.572H82.335c-6.933,0-12.573,5.64-12.573,12.572V169.527z M84.762,143.189h111.141v26.337     c0,30.642-24.929,55.57-55.571,55.57c-30.642,0-55.57-24.929-55.57-55.57V143.189z"/><path d="M354.123,195.922c4.143,0,7.5-3.358,7.5-7.5c0-5.538,4.506-10.044,10.044-10.044c5.538,0,10.044,4.506,10.044,10.044     c0,4.142,3.357,7.5,7.5,7.5s7.5-3.358,7.5-7.5c0-13.809-11.234-25.044-25.044-25.044s-25.044,11.235-25.044,25.044     C346.623,192.563,349.98,195.922,354.123,195.922z"/><path d="M486.205,127.918h-9.091C471.451,107.021,452.33,91.6,429.665,91.6H313.669c-27.107,0-49.161,22.054-49.161,49.162v9.03     c-2.753-0.533-5.597-0.815-8.508-0.815s-5.755,0.282-8.508,0.815v-9.03c0-27.108-22.054-49.162-49.161-49.162h-97.745     c-4.142,0-7.5,3.358-7.5,7.5c0,4.142,3.358,7.5,7.5,7.5h97.745c18.836,0,34.161,15.325,34.161,34.162v14.97     c-11.151,7.043-18.884,19.015-20.158,33.151l-3.129,34.71c-0.499,5.531-5.063,9.703-10.617,9.703     c-17.938,0-33.362,10.965-39.927,26.543c-6.02,1.22-12.166,1.847-18.328,1.847c-50.817,0-92.159-41.343-92.159-92.16v-28.765     c0-1.504,0.104-2.992,0.298-4.459c0.008-0.064,0.016-0.129,0.022-0.194c1.464-10.631,7.89-20.076,17.498-25.337     c3.633-1.989,4.965-6.547,2.976-10.181c-1.989-3.633-6.548-4.966-10.181-2.976c-11.929,6.533-20.443,17.56-23.899,30.303h-9.092     C11.571,127.918,0,139.49,0,153.712c0,14.223,11.571,25.794,25.794,25.794h7.848c5.051,54.426,50.968,97.179,106.69,97.179     c5.015,0,10.021-0.363,14.976-1.061c-0.007,0.325-0.025,0.648-0.025,0.974c0,20.422,14.214,37.575,33.265,42.116     c-18.553,9.694-32.301,27.343-36.673,48.746l-5.064,24.789c-1.703,8.337,1.095,16.668,7.487,22.286     c6.392,5.618,15.012,7.325,23.062,4.566c25.775-8.833,50.749-20.323,74.229-34.152c2.721-1.603,6.101-1.603,8.822,0     c23.479,13.829,48.452,25.319,74.229,34.153c2.564,0.878,5.165,1.297,7.717,1.297c9.553,0,18.396-5.867,21.899-15.398     c1.43-3.888-0.563-8.198-4.451-9.627c-3.887-1.428-8.197,0.564-9.627,4.451c-1.403,3.817-5.778,6.765-10.676,5.087     c-24.82-8.506-48.869-19.571-71.478-32.887c-7.417-4.368-16.631-4.369-24.048,0c-22.609,13.317-46.658,24.381-71.479,32.887     c-4.171,1.43-7.192-0.672-8.296-1.643c-1.104-0.97-3.577-3.694-2.693-8.017l5.064-24.79     c4.579-22.417,22.195-39.613,44.412-43.827C222.516,339.339,238.803,346.6,256,346.6c17.198,0,33.486-7.263,45.016-19.963     c22.217,4.213,39.833,21.409,44.412,43.826l0.884,4.33c0.726,3.553,3.851,6.001,7.341,6.001c0.497,0,1.002-0.05,1.508-0.153     c4.059-0.829,6.677-4.79,5.849-8.849l-0.884-4.331c-4.373-21.403-18.121-39.052-36.674-48.746     c19.051-4.541,33.264-21.695,33.264-42.116c0-0.327-0.017-0.649-0.025-0.974c4.955,0.698,9.961,1.061,14.976,1.061     c55.722,0,101.64-42.754,106.691-97.179h7.847c14.224,0,25.795-11.571,25.795-25.794C512,139.49,500.429,127.918,486.205,127.918     z M33.173,164.508h-7.379c-5.952,0-10.794-4.842-10.794-10.794c0-5.952,4.842-10.794,10.794-10.794h7.379V164.508z      M313.412,304.904c-7.541,0-14.786,2.97-20.315,8.239c-0.047,0.044-0.091,0.092-0.138,0.137c-0.718,0.693-1.41,1.42-2.066,2.189     C282.162,325.72,269.443,331.6,256,331.6s-26.162-5.88-34.895-16.132c-0.663-0.778-1.363-1.514-2.089-2.213     c-0.036-0.035-0.069-0.072-0.106-0.106c-5.528-5.273-12.777-8.246-20.323-8.246c-15.607,0-28.304-12.697-28.304-28.304     c0-15.607,12.697-28.304,28.304-28.304c13.369,0,24.356-10.041,25.556-23.356l3.129-34.71     c0.919-10.193,6.943-18.676,15.438-23.052c0.379-0.148,0.743-0.326,1.089-0.531c3.706-1.715,7.839-2.671,12.2-2.671     c4.36,0,8.493,0.956,12.199,2.671c0.347,0.205,0.71,0.383,1.09,0.531c8.495,4.377,14.519,12.858,15.438,23.052l3.129,34.71     c0,0.001,0,0.001,0,0.001c1.202,13.315,12.188,23.355,25.557,23.355c15.606,0,28.304,12.697,28.304,28.304     S329.019,304.904,313.412,304.904z M463.828,169.527L463.828,169.527c-0.001,50.817-41.344,92.16-92.161,92.16     c-6.162,0-12.309-0.627-18.328-1.848c-6.564-15.578-21.988-26.543-39.926-26.543c-5.554,0-10.117-4.171-10.617-9.703     l-3.129-34.71c-1.274-14.136-9.007-26.108-20.158-33.151v-14.97c0-18.837,15.324-34.162,34.161-34.162h115.996     c17.279,0,31.593,12.897,33.844,29.568c0.002,0.023,0.006,0.045,0.009,0.067c0.197,1.482,0.309,2.991,0.309,4.526V169.527z      M486.205,164.508h-7.378v-21.589h7.378c5.952,0,10.795,4.842,10.795,10.794C497,159.665,492.157,164.508,486.205,164.508z"/><path d="M429.665,128.189H313.669c-6.933,0-12.572,5.64-12.572,12.572v28.765c0,38.913,31.657,70.57,70.57,70.57     c38.913,0,70.57-31.658,70.57-70.57v-28.765C442.237,133.829,436.598,128.189,429.665,128.189z M427.238,169.527L427.238,169.527     c-0.001,30.642-24.93,55.57-55.571,55.57s-55.57-24.929-55.57-55.57v-26.337h111.141V169.527z"/></g><path d="M420.986,0H9C4.029,0,0,4.029,0,9v77.247c0,4.971,4.029,9,9,9h25.75c9.236,0,16.75,7.514,16.75,16.749  s-7.514,16.749-16.75,16.749H9c-4.971,0-9,4.029-9,9V292.24c0,4.971,4.029,9,9,9h25.75c9.236,0,16.75,7.514,16.75,16.749  s-7.514,16.749-16.75,16.749H9c-4.971,0-9,4.029-9,9v77.248c0,4.971,4.029,9,9,9h205.993c4.971,0,9-4.029,9-9v-77.248  c0-4.971-4.029-9-9-9h-25.75c-9.235,0-16.749-7.514-16.749-16.75c0-9.235,7.513-16.748,16.749-16.748h25.75c4.971,0,9-4.029,9-9  v-68.247h59.248v16.75c0,19.16,15.588,34.748,34.75,34.748s34.75-15.588,34.75-34.748v-16.75h68.247c4.971,0,9-4.029,9-9V9  C429.986,4.029,425.957,0,420.986,0z M205.993,283.24h-16.75c-19.16,0-34.749,15.588-34.749,34.749s15.588,34.749,34.749,34.749  h16.75v59.248H18v-59.248h16.75c19.161,0,34.75-15.589,34.75-34.75c0-19.16-15.588-34.748-34.75-34.748H18v-59.247h68.247  c4.971,0,9-4.029,9-9v-25.75c0-9.235,7.515-16.748,16.751-16.748c9.234,0,16.748,7.513,16.748,16.748v25.75c0,4.971,4.029,9,9,9  h68.248V283.24z M214.993,128.745c-4.971,0-9,4.029-9,9v68.248h-59.248v-16.75c0-19.16-15.588-34.748-34.75-34.748  s-34.75,15.588-34.75,34.748v16.75H18v-59.248h16.75c19.161,0,34.75-15.589,34.75-34.75c0-19.16-15.588-34.748-34.75-34.748H18V18  h187.993v68.247c0,4.971,4.029,9,9,9h25.75c9.234,0,16.748,7.514,16.748,16.749s-7.513,16.749-16.748,16.749H214.993z   M411.986,205.993H343.74c-4.971,0-9,4.029-9,9v25.75c0,9.235-7.514,16.748-16.75,16.748c-9.235,0-16.749-7.513-16.749-16.748  v-25.75c0-4.971-4.029-9-9-9h-68.248v-59.248h16.75c19.16,0,34.748-15.589,34.748-34.75c0-19.16-15.588-34.748-34.748-34.748h-16.75  V18h187.993V205.993z" transform="matrix(0.07252377456580462 0.0923029858934931 -0.0923029858934931 0.07252377456580462 343.1738465494986 25.57586560119003)" id="L1_8"/><path d="M429.986,111.996v308.99c0,4.971-4.029,9-9,9H9c-4.971,0-9-4.029-9-9v-52.913c0-4.971,4.029-9,9-9  s9,4.029,9,9v43.913h84.997v-42.498c0-4.971,4.029-9,9-9s9,4.029,9,9v42.498h290.989v-33.498H317.99c-4.971,0-9-4.029-9-9  s4.029-9,9-9h93.996V120.996h-42.498c-4.971,0-9-4.029-9-9s4.029-9,9-9h51.498C425.957,102.996,429.986,107.025,429.986,111.996z   M111.997,308.989c-4.971,0-9,4.029-9,9s4.029,9,9,9h102.996c4.971,0,9-4.029,9-9v-93.996h42.499c4.971,0,9-4.029,9-9s-4.029-9-9-9  h-93.996v-42.498c0-4.971-4.029-9-9-9s-9,4.029-9,9v42.498h-42.499c-4.971,0-9,4.029-9,9s4.029,9,9,9h93.996v84.996H111.997z   M420.986,0H9C4.029,0,0,4.029,0,9v308.989c0,4.971,4.029,9,9,9h42.498v42.496c0,4.971,4.029,9,9,9s9-4.029,9-9v-93.994h93.998  c4.971,0,9-4.029,9-9s-4.029-9-9-9H69.498v-42.498c0-4.971-4.029-9-9-9s-9,4.029-9,9v93.996H18V120.996h42.498c4.971,0,9-4.029,9-9  s-4.029-9-9-9H18V69.498h84.997v84.997H59.145c-4.971,0-9,4.029-9,9s4.029,9,9,9h52.852c4.971,0,9-4.029,9-9V60.498  c0-4.971-4.029-9-9-9H18V18h136.496v93.996c0,4.971,4.029,9,9,9h102.996c4.971,0,9-4.029,9-9s-4.029-9-9-9h-93.996V18h239.49v33.498  H214.993c-4.971,0-9,4.029-9,9s4.029,9,9,9h93.997l0.001,84.997h-93.998c-4.971,0-9,4.029-9,9s4.029,9,9,9h93.998v42.248  c-0.002,0.083-0.003,0.166-0.003,0.25s0.001,0.167,0.003,0.25l0.001,51.253c0,4.971,4.029,9,9,9h42.498l-0.002,42.492  c0,4.971,4.029,9.001,8.999,9.001c0.001,0,0.001,0,0.001,0c4.971,0,9-4.029,9-8.999l0.003-51.494c0-2.387-0.948-4.676-2.636-6.364  c-1.688-1.688-3.978-2.636-6.364-2.636h-42.499v-33.503h42.494c2.387,0,4.676-0.948,6.364-2.636  c1.688-1.688,2.636-3.978,2.636-6.364l-0.002-51.498c0-4.971-4.03-9-9-9c-4.971,0-9,4.029-9,9l0.002,42.498h-33.495L326.99,69.498  h93.996c4.971,0,9-4.029,9-9V9C429.986,4.029,425.957,0,420.986,0z M326.99,317.989c0-4.971-4.029-9-9-9h-42.497l-0.001-42.498  c0-4.971-4.029-9-9-9s-9,4.029-9,9l0.001,51.363c-0.001,0.045-0.001,0.09-0.001,0.135s0,0.09,0.001,0.135l0.001,42.364h-90.203  c-4.971,0-9,4.029-9,9s4.029,9,9,9h99.203c2.387,0,4.676-0.948,6.364-2.636c1.688-1.688,2.636-3.978,2.636-6.364l-0.001-42.499  h42.497C322.961,326.989,326.99,322.96,326.99,317.989z" transform="matrix(0.06263416756521048 -0.03955842451823695 0.03955842451823695 0.06263416756521048 123.01089471780992 132.98145883613358)" id="L1_10"/><path d="M429.986,111.996v308.99c0,4.971-4.029,9-9,9H9c-4.971,0-9-4.029-9-9v-52.913c0-4.971,4.029-9,9-9  s9,4.029,9,9v43.913h84.997v-42.498c0-4.971,4.029-9,9-9s9,4.029,9,9v42.498h290.989v-33.498H317.99c-4.971,0-9-4.029-9-9  s4.029-9,9-9h93.996V120.996h-42.498c-4.971,0-9-4.029-9-9s4.029-9,9-9h51.498C425.957,102.996,429.986,107.025,429.986,111.996z   M111.997,308.989c-4.971,0-9,4.029-9,9s4.029,9,9,9h102.996c4.971,0,9-4.029,9-9v-93.996h42.499c4.971,0,9-4.029,9-9s-4.029-9-9-9  h-93.996v-42.498c0-4.971-4.029-9-9-9s-9,4.029-9,9v42.498h-42.499c-4.971,0-9,4.029-9,9s4.029,9,9,9h93.996v84.996H111.997z   M420.986,0H9C4.029,0,0,4.029,0,9v308.989c0,4.971,4.029,9,9,9h42.498v42.496c0,4.971,4.029,9,9,9s9-4.029,9-9v-93.994h93.998  c4.971,0,9-4.029,9-9s-4.029-9-9-9H69.498v-42.498c0-4.971-4.029-9-9-9s-9,4.029-9,9v93.996H18V120.996h42.498c4.971,0,9-4.029,9-9  s-4.029-9-9-9H18V69.498h84.997v84.997H59.145c-4.971,0-9,4.029-9,9s4.029,9,9,9h52.852c4.971,0,9-4.029,9-9V60.498  c0-4.971-4.029-9-9-9H18V18h136.496v93.996c0,4.971,4.029,9,9,9h102.996c4.971,0,9-4.029,9-9s-4.029-9-9-9h-93.996V18h239.49v33.498  H214.993c-4.971,0-9,4.029-9,9s4.029,9,9,9h93.997l0.001,84.997h-93.998c-4.971,0-9,4.029-9,9s4.029,9,9,9h93.998v42.248  c-0.002,0.083-0.003,0.166-0.003,0.25s0.001,0.167,0.003,0.25l0.001,51.253c0,4.971,4.029,9,9,9h42.498l-0.002,42.492  c0,4.971,4.029,9.001,8.999,9.001c0.001,0,0.001,0,0.001,0c4.971,0,9-4.029,9-8.999l0.003-51.494c0-2.387-0.948-4.676-2.636-6.364  c-1.688-1.688-3.978-2.636-6.364-2.636h-42.499v-33.503h42.494c2.387,0,4.676-0.948,6.364-2.636  c1.688-1.688,2.636-3.978,2.636-6.364l-0.002-51.498c0-4.971-4.03-9-9-9c-4.971,0-9,4.029-9,9l0.002,42.498h-33.495L326.99,69.498  h93.996c4.971,0,9-4.029,9-9V9C429.986,4.029,425.957,0,420.986,0z M326.99,317.989c0-4.971-4.029-9-9-9h-42.497l-0.001-42.498  c0-4.971-4.029-9-9-9s-9,4.029-9,9l0.001,51.363c-0.001,0.045-0.001,0.09-0.001,0.135s0,0.09,0.001,0.135l0.001,42.364h-90.203  c-4.971,0-9,4.029-9,9s4.029,9,9,9h99.203c2.387,0,4.676-0.948,6.364-2.636c1.688-1.688,2.636-3.978,2.636-6.364l-0.001-42.499  h42.497C322.961,326.989,326.99,322.96,326.99,317.989z" transform="matrix(0.08900644609681145 0.06263416661612811 -0.06263416661612811 0.08900644609681145 74.27435177110281 284.40429429278385)" id="L1_11"/><g transform="matrix(0.08205787519691397 0.08205787519691397 -0.08205787519691397 0.08205787519691397 38.99393298397049 102.62068339755602)"><path d="M353.073,188.913c0-11.2-7.2-27.28-42.64-40.88c-3.958-1.964-8.758-0.348-10.723,3.609    c-1.964,3.958-0.348,8.758,3.609,10.723c0.558,0.277,1.146,0.488,1.753,0.628c20.4,8,32.64,17.44,32.64,25.92    c0,9.92-16.64,21.44-45.84,30.24V38.833c1.564-19.821-13.236-37.156-33.057-38.72c-1.885-0.149-3.778-0.149-5.663,0h-128.88    C104.453-1.45,87.117,13.35,85.553,33.17c-0.149,1.885-0.149,3.778,0,5.663v182.32c-33.68-8.88-52.64-21.44-52.64-32    c0-9.04,14.4-19.68,37.6-27.68c4.242-1.502,6.462-6.158,4.96-10.4c-1.502-4.242-6.158-6.462-10.4-4.96c-32,10.96-48,25.76-48,42.8    c0,23.52,30.64,39.28,68.64,48.72v93.68c-1.564,19.821,13.236,37.156,33.057,38.72c1.885,0.149,3.778,0.149,5.663,0h128.32    c19.821,1.564,37.156-13.236,38.72-33.057c0.149-1.885,0.149-3.778,0-5.663v-95.44    C326.353,226.353,353.073,210.993,353.073,188.913z M258.25,354.033c-1.824,0.251-3.673,0.251-5.496,0h-128.48    c-11.03,1.518-21.202-6.193-22.72-17.224c-0.251-1.824-0.251-3.673,0-5.496v-25.04h173.92v25.04    C276.991,342.343,269.28,352.516,258.25,354.033z M148.113,231.073c-15.654-1.056-31.229-3.059-46.64-6V62.033h174v161.28    c-11.935,2.694-24.006,4.75-36.16,6.16l12.72-15.36c2.593-3.577,1.796-8.579-1.781-11.173c-3.266-2.368-7.784-1.934-10.539,1.013    l-25.04,30.24c-0.212,0.332-0.399,0.68-0.56,1.04c-0.288,0.455-0.529,0.937-0.72,1.44c-0.258,0.968-0.419,1.96-0.48,2.96    c-0.048,0.505-0.048,1.014,0,1.52c0.085,0.492,0.219,0.975,0.4,1.44c0.247,0.482,0.541,0.938,0.88,1.36    c0.188,0.336,0.402,0.657,0.64,0.96l24.96,25.2c3.115,3.137,8.183,3.155,11.32,0.04c3.137-3.115,3.155-8.183,0.04-11.32    l-13.04-13.2c12.48-1.44,24.96-3.36,37.04-5.92v50.48h-173.68v-49.12c14.997,2.842,30.14,4.846,45.36,6h0.64    c4.418,0.177,8.143-3.262,8.32-7.68C155.97,234.975,152.532,231.25,148.113,231.073z M275.473,38.753v7.28h-174v-7.28    c-1.518-11.03,6.193-21.202,17.224-22.72c1.824-0.251,3.673-0.251,5.496,0h128.56c11.03-1.518,21.202,6.194,22.72,17.224    C275.724,35.08,275.724,36.93,275.473,38.753z" fill="#858585"/><path d="M210.273,319.713h-44.48c-4.418,0-8,3.582-8,8s3.582,8,8,8h44.48c4.418,0,8-3.582,8-8S214.692,319.713,210.273,319.713z" fill="#858585"/></g><path d="M473.371,433.11c-10.657-3.997-20.458-6.563-29.407-7.706c-8.945-0.767-15.516-2.95-19.701-6.567   c-2.475-1.529-5.808-6.95-9.996-16.279c-7.806-15.604-13.989-29.786-18.555-42.537c-7.427-20.181-13.617-35.789-18.565-46.829   c-10.845-25.311-19.982-47.678-27.401-67.092c-4.001-10.466-15.797-38.731-35.405-84.796L255.813,24.265l-3.142-5.996h-15.129   h-21.414l-79.94,206.704L68.523,400.847c-5.33,9.896-9.9,16.372-13.706,19.417c-3.996,2.848-14.466,5.805-31.405,8.843   c-11.042,2.102-18.654,3.812-22.841,5.141L0,456.812h5.996c16.37,0,32.264-1.334,47.679-3.997l13.706-2.279   c53.868,3.806,87.082,5.708,99.642,5.708c0.381-1.902,0.571-4.476,0.571-7.706c0-5.715-0.094-11.231-0.287-16.563   c-3.996-0.568-7.851-1.143-11.561-1.711c-3.711-0.575-6.567-1.047-8.565-1.431c-1.997-0.373-3.284-0.568-3.855-0.568   c-14.657-2.094-24.46-5.14-29.407-9.134c-3.236-2.282-4.854-6.375-4.854-12.278c0-3.806,2.19-11.796,6.567-23.982   c14.277-39.776,24.172-65.856,29.692-78.224l128.483,0.568l26.269,65.096l13.411,32.541c1.144,3.241,1.711,6.283,1.711,9.138   s-1.14,5.428-3.426,7.707c-2.285,1.905-8.753,4.093-19.417,6.563l-37.404,7.994c-0.763,6.283-1.136,13.702-1.136,22.271   l16.56-0.575l57.103-3.138c10.656-0.38,23.51-0.575,38.547-0.575c18.264,0,36.251,0.763,53.957,2.282   c21.313,1.523,39.588,2.283,54.819,2.283c0.192-2.283,0.281-4.754,0.281-7.423C475.082,445.957,474.513,440.537,473.371,433.11z    M251.245,270.941c-2.666,0-7.662-0.052-14.989-0.144c-7.327-0.089-18.649-0.233-33.973-0.425   c-15.321-0.195-29.93-0.383-43.824-0.574l48.535-128.477c7.424,15.037,16.178,35.117,26.264,60.242   c11.425,27.79,20.179,50.727,26.273,68.809L251.245,270.941z" transform="matrix(0.025523838956824894 0.03318099059269692 -0.03318099059269692 0.025523838956824894 59.81473907903519 17.0565109681233)" fill="#2c2e2c"/><g transform="matrix(0.09624321294419788 0.05675881596051945 -0.05675881596051945 0.09624321294419788 133.9334335219705 303.8467559467175)"><path d="M122.789,195.922c4.142,0,7.5-3.358,7.5-7.5c0-5.538,4.506-10.044,10.044-10.044s10.044,4.506,10.044,10.044     c0,4.142,3.358,7.5,7.5,7.5c4.142,0,7.5-3.358,7.5-7.5c0-13.809-11.235-25.044-25.044-25.044     c-13.81,0-25.044,11.235-25.044,25.044C115.289,192.563,118.646,195.922,122.789,195.922z"/><path d="M69.762,169.527c0,38.913,31.658,70.57,70.57,70.57c38.913,0,70.571-31.658,70.571-70.57v-28.765     c0-6.933-5.64-12.572-12.572-12.572H82.335c-6.933,0-12.573,5.64-12.573,12.572V169.527z M84.762,143.189h111.141v26.337     c0,30.642-24.929,55.57-55.571,55.57c-30.642,0-55.57-24.929-55.57-55.57V143.189z"/><path d="M354.123,195.922c4.143,0,7.5-3.358,7.5-7.5c0-5.538,4.506-10.044,10.044-10.044c5.538,0,10.044,4.506,10.044,10.044     c0,4.142,3.357,7.5,7.5,7.5s7.5-3.358,7.5-7.5c0-13.809-11.234-25.044-25.044-25.044s-25.044,11.235-25.044,25.044     C346.623,192.563,349.98,195.922,354.123,195.922z"/><path d="M486.205,127.918h-9.091C471.451,107.021,452.33,91.6,429.665,91.6H313.669c-27.107,0-49.161,22.054-49.161,49.162v9.03     c-2.753-0.533-5.597-0.815-8.508-0.815s-5.755,0.282-8.508,0.815v-9.03c0-27.108-22.054-49.162-49.161-49.162h-97.745     c-4.142,0-7.5,3.358-7.5,7.5c0,4.142,3.358,7.5,7.5,7.5h97.745c18.836,0,34.161,15.325,34.161,34.162v14.97     c-11.151,7.043-18.884,19.015-20.158,33.151l-3.129,34.71c-0.499,5.531-5.063,9.703-10.617,9.703     c-17.938,0-33.362,10.965-39.927,26.543c-6.02,1.22-12.166,1.847-18.328,1.847c-50.817,0-92.159-41.343-92.159-92.16v-28.765     c0-1.504,0.104-2.992,0.298-4.459c0.008-0.064,0.016-0.129,0.022-0.194c1.464-10.631,7.89-20.076,17.498-25.337     c3.633-1.989,4.965-6.547,2.976-10.181c-1.989-3.633-6.548-4.966-10.181-2.976c-11.929,6.533-20.443,17.56-23.899,30.303h-9.092     C11.571,127.918,0,139.49,0,153.712c0,14.223,11.571,25.794,25.794,25.794h7.848c5.051,54.426,50.968,97.179,106.69,97.179     c5.015,0,10.021-0.363,14.976-1.061c-0.007,0.325-0.025,0.648-0.025,0.974c0,20.422,14.214,37.575,33.265,42.116     c-18.553,9.694-32.301,27.343-36.673,48.746l-5.064,24.789c-1.703,8.337,1.095,16.668,7.487,22.286     c6.392,5.618,15.012,7.325,23.062,4.566c25.775-8.833,50.749-20.323,74.229-34.152c2.721-1.603,6.101-1.603,8.822,0     c23.479,13.829,48.452,25.319,74.229,34.153c2.564,0.878,5.165,1.297,7.717,1.297c9.553,0,18.396-5.867,21.899-15.398     c1.43-3.888-0.563-8.198-4.451-9.627c-3.887-1.428-8.197,0.564-9.627,4.451c-1.403,3.817-5.778,6.765-10.676,5.087     c-24.82-8.506-48.869-19.571-71.478-32.887c-7.417-4.368-16.631-4.369-24.048,0c-22.609,13.317-46.658,24.381-71.479,32.887     c-4.171,1.43-7.192-0.672-8.296-1.643c-1.104-0.97-3.577-3.694-2.693-8.017l5.064-24.79     c4.579-22.417,22.195-39.613,44.412-43.827C222.516,339.339,238.803,346.6,256,346.6c17.198,0,33.486-7.263,45.016-19.963     c22.217,4.213,39.833,21.409,44.412,43.826l0.884,4.33c0.726,3.553,3.851,6.001,7.341,6.001c0.497,0,1.002-0.05,1.508-0.153     c4.059-0.829,6.677-4.79,5.849-8.849l-0.884-4.331c-4.373-21.403-18.121-39.052-36.674-48.746     c19.051-4.541,33.264-21.695,33.264-42.116c0-0.327-0.017-0.649-0.025-0.974c4.955,0.698,9.961,1.061,14.976,1.061     c55.722,0,101.64-42.754,106.691-97.179h7.847c14.224,0,25.795-11.571,25.795-25.794C512,139.49,500.429,127.918,486.205,127.918     z M33.173,164.508h-7.379c-5.952,0-10.794-4.842-10.794-10.794c0-5.952,4.842-10.794,10.794-10.794h7.379V164.508z      M313.412,304.904c-7.541,0-14.786,2.97-20.315,8.239c-0.047,0.044-0.091,0.092-0.138,0.137c-0.718,0.693-1.41,1.42-2.066,2.189     C282.162,325.72,269.443,331.6,256,331.6s-26.162-5.88-34.895-16.132c-0.663-0.778-1.363-1.514-2.089-2.213     c-0.036-0.035-0.069-0.072-0.106-0.106c-5.528-5.273-12.777-8.246-20.323-8.246c-15.607,0-28.304-12.697-28.304-28.304     c0-15.607,12.697-28.304,28.304-28.304c13.369,0,24.356-10.041,25.556-23.356l3.129-34.71     c0.919-10.193,6.943-18.676,15.438-23.052c0.379-0.148,0.743-0.326,1.089-0.531c3.706-1.715,7.839-2.671,12.2-2.671     c4.36,0,8.493,0.956,12.199,2.671c0.347,0.205,0.71,0.383,1.09,0.531c8.495,4.377,14.519,12.858,15.438,23.052l3.129,34.71     c0,0.001,0,0.001,0,0.001c1.202,13.315,12.188,23.355,25.557,23.355c15.606,0,28.304,12.697,28.304,28.304     S329.019,304.904,313.412,304.904z M463.828,169.527L463.828,169.527c-0.001,50.817-41.344,92.16-92.161,92.16     c-6.162,0-12.309-0.627-18.328-1.848c-6.564-15.578-21.988-26.543-39.926-26.543c-5.554,0-10.117-4.171-10.617-9.703     l-3.129-34.71c-1.274-14.136-9.007-26.108-20.158-33.151v-14.97c0-18.837,15.324-34.162,34.161-34.162h115.996     c17.279,0,31.593,12.897,33.844,29.568c0.002,0.023,0.006,0.045,0.009,0.067c0.197,1.482,0.309,2.991,0.309,4.526V169.527z      M486.205,164.508h-7.378v-21.589h7.378c5.952,0,10.795,4.842,10.795,10.794C497,159.665,492.157,164.508,486.205,164.508z"/><path d="M429.665,128.189H313.669c-6.933,0-12.572,5.64-12.572,12.572v28.765c0,38.913,31.657,70.57,70.57,70.57     c38.913,0,70.57-31.658,70.57-70.57v-28.765C442.237,133.829,436.598,128.189,429.665,128.189z M427.238,169.527L427.238,169.527     c-0.001,30.642-24.93,55.57-55.571,55.57s-55.57-24.929-55.57-55.57v-26.337h111.141V169.527z"/></g></defs><g fi:class="KUsePattern"><pattern id="pattern_L1_0" width="350" height="350" patternUnits="userSpaceOnUse"><use xlink:href="#L1_0" x="-350" y="-350"/><use xlink:href="#L1_0" x="0" y="-350"/><use xlink:href="#L1_0" x="350" y="-350"/><use xlink:href="#L1_0" x="-350" y="0"/><use xlink:href="#L1_0" x="0" y="0"/><use xlink:href="#L1_0" x="350" y="0"/><use xlink:href="#L1_0" x="-350" y="350"/><use xlink:href="#L1_0" x="0" y="350"/><use xlink:href="#L1_0" x="350" y="350"/></pattern><rect x="0" y="0" width="100%" height="100%" fill="url(#pattern_L1_0)"/></g><g fi:class="KUsePattern" opacity="0.41"><pattern id="pattern_L1_1" width="350" height="350" patternUnits="userSpaceOnUse"><use xlink:href="#L1_1" x="-350" y="-350"/><use xlink:href="#L1_1" x="0" y="-350"/><use xlink:href="#L1_1" x="350" y="-350"/><use xlink:href="#L1_1" x="-350" y="0"/><use xlink:href="#L1_1" x="0" y="0"/><use xlink:href="#L1_1" x="350" y="0"/><use xlink:href="#L1_1" x="-350" y="350"/><use xlink:href="#L1_1" x="0" y="350"/><use xlink:href="#L1_1" x="350" y="350"/></pattern><rect x="0" y="0" width="100%" height="100%" fill="url(#pattern_L1_1)"/></g><g fi:class="KUsePattern" opacity="0.37"><pattern id="pattern_L1_2" width="350" height="350" patternUnits="userSpaceOnUse"><use xlink:href="#L1_2" x="-350" y="-350"/><use xlink:href="#L1_2" x="0" y="-350"/><use xlink:href="#L1_2" x="350" y="-350"/><use xlink:href="#L1_2" x="-350" y="0"/><use xlink:href="#L1_2" x="0" y="0"/><use xlink:href="#L1_2" x="350" y="0"/><use xlink:href="#L1_2" x="-350" y="350"/><use xlink:href="#L1_2" x="0" y="350"/><use xlink:href="#L1_2" x="350" y="350"/></pattern><rect x="0" y="0" width="100%" height="100%" fill="url(#pattern_L1_2)"/></g><g fi:class="KUsePattern" transform="matrix(1 0 0 1 20 20)"><pattern id="pattern_UNKNOWN" width="350" height="350" patternUnits="userSpaceOnUse"><use xlink:href="#UNKNOWN" x="-350" y="-350"/><use xlink:href="#UNKNOWN" x="0" y="-350"/><use xlink:href="#UNKNOWN" x="350" y="-350"/><use xlink:href="#UNKNOWN" x="-350" y="0"/><use xlink:href="#UNKNOWN" x="0" y="0"/><use xlink:href="#UNKNOWN" x="350" y="0"/><use xlink:href="#UNKNOWN" x="-350" y="350"/><use xlink:href="#UNKNOWN" x="0" y="350"/><use xlink:href="#UNKNOWN" x="350" y="350"/></pattern><rect x="0" y="0" width="100%" height="100%" fill="url(#pattern_UNKNOWN)"/></g><g fi:class="KUsePattern" opacity="0.8"><pattern id="pattern_L1_3" width="350" height="350" patternUnits="userSpaceOnUse"><use xlink:href="#L1_3" x="-350" y="-350"/><use xlink:href="#L1_3" x="0" y="-350"/><use xlink:href="#L1_3" x="350" y="-350"/><use xlink:href="#L1_3" x="-350" y="0"/><use xlink:href="#L1_3" x="0" y="0"/><use xlink:href="#L1_3" x="350" y="0"/><use xlink:href="#L1_3" x="-350" y="350"/><use xlink:href="#L1_3" x="0" y="350"/><use xlink:href="#L1_3" x="350" y="350"/></pattern><rect x="0" y="0" width="100%" height="100%" fill="url(#pattern_L1_3)"/></g><g fi:class="KUsePattern" opacity="0.63"><pattern id="pattern_L1_4" width="350" height="350" patternUnits="userSpaceOnUse"><use xlink:href="#L1_4" x="-350" y="-350"/><use xlink:href="#L1_4" x="0" y="-350"/><use xlink:href="#L1_4" x="350" y="-350"/><use xlink:href="#L1_4" x="-350" y="0"/><use xlink:href="#L1_4" x="0" y="0"/><use xlink:href="#L1_4" x="350" y="0"/><use xlink:href="#L1_4" x="-350" y="350"/><use xlink:href="#L1_4" x="0" y="350"/><use xlink:href="#L1_4" x="350" y="350"/></pattern><rect x="0" y="0" width="100%" height="100%" fill="url(#pattern_L1_4)"/></g><g fi:class="KUsePattern" opacity="0.63"><pattern id="pattern_L1_5" width="350" height="350" patternUnits="userSpaceOnUse"><use xlink:href="#L1_5" x="-350" y="-350"/><use xlink:href="#L1_5" x="0" y="-350"/><use xlink:href="#L1_5" x="350" y="-350"/><use xlink:href="#L1_5" x="-350" y="0"/><use xlink:href="#L1_5" x="0" y="0"/><use xlink:href="#L1_5" x="350" y="0"/><use xlink:href="#L1_5" x="-350" y="350"/><use xlink:href="#L1_5" x="0" y="350"/><use xlink:href="#L1_5" x="350" y="350"/></pattern><rect x="0" y="0" width="100%" height="100%" fill="url(#pattern_L1_5)"/></g><g fi:class="KUsePattern" opacity="0.67"><pattern id="pattern_L1_7" width="350" height="350" patternUnits="userSpaceOnUse"><use xlink:href="#L1_7" x="-350" y="-350"/><use xlink:href="#L1_7" x="0" y="-350"/><use xlink:href="#L1_7" x="350" y="-350"/><use xlink:href="#L1_7" x="-350" y="0"/><use xlink:href="#L1_7" x="0" y="0"/><use xlink:href="#L1_7" x="350" y="0"/><use xlink:href="#L1_7" x="-350" y="350"/><use xlink:href="#L1_7" x="0" y="350"/><use xlink:href="#L1_7" x="350" y="350"/></pattern><rect x="0" y="0" width="100%" height="100%" fill="url(#pattern_L1_7)"/></g><g fi:class="KUsePattern" transform="matrix(1 0 0 1 20 20)" opacity="0.55"><pattern id="pattern_UNKNOWN" width="350" height="350" patternUnits="userSpaceOnUse"><use xlink:href="#UNKNOWN" x="-350" y="-350"/><use xlink:href="#UNKNOWN" x="0" y="-350"/><use xlink:href="#UNKNOWN" x="350" y="-350"/><use xlink:href="#UNKNOWN" x="-350" y="0"/><use xlink:href="#UNKNOWN" x="0" y="0"/><use xlink:href="#UNKNOWN" x="350" y="0"/><use xlink:href="#UNKNOWN" x="-350" y="350"/><use xlink:href="#UNKNOWN" x="0" y="350"/><use xlink:href="#UNKNOWN" x="350" y="350"/></pattern><rect x="0" y="0" width="100%" height="100%" fill="url(#pattern_UNKNOWN)"/></g><g fi:class="KUsePattern" opacity="0.52"><pattern id="pattern_L1_6" width="350" height="350" patternUnits="userSpaceOnUse"><use xlink:href="#L1_6" x="-350" y="-350"/><use xlink:href="#L1_6" x="0" y="-350"/><use xlink:href="#L1_6" x="350" y="-350"/><use xlink:href="#L1_6" x="-350" y="0"/><use xlink:href="#L1_6" x="0" y="0"/><use xlink:href="#L1_6" x="350" y="0"/><use xlink:href="#L1_6" x="-350" y="350"/><use xlink:href="#L1_6" x="0" y="350"/><use xlink:href="#L1_6" x="350" y="350"/></pattern><rect x="0" y="0" width="100%" height="100%" fill="url(#pattern_L1_6)"/></g><g fi:class="KUsePattern" opacity="0.69"><pattern id="pattern_L1_8" width="350" height="350" patternUnits="userSpaceOnUse"><use xlink:href="#L1_8" x="-350" y="-350"/><use xlink:href="#L1_8" x="0" y="-350"/><use xlink:href="#L1_8" x="350" y="-350"/><use xlink:href="#L1_8" x="-350" y="0"/><use xlink:href="#L1_8" x="0" y="0"/><use xlink:href="#L1_8" x="350" y="0"/><use xlink:href="#L1_8" x="-350" y="350"/><use xlink:href="#L1_8" x="0" y="350"/><use xlink:href="#L1_8" x="350" y="350"/></pattern><rect x="0" y="0" width="100%" height="100%" fill="url(#pattern_L1_8)"/></g><g fi:class="KUsePattern"><pattern id="pattern_L1_10" width="350" height="350" patternUnits="userSpaceOnUse"><use xlink:href="#L1_10" x="-350" y="-350"/><use xlink:href="#L1_10" x="0" y="-350"/><use xlink:href="#L1_10" x="350" y="-350"/><use xlink:href="#L1_10" x="-350" y="0"/><use xlink:href="#L1_10" x="0" y="0"/><use xlink:href="#L1_10" x="350" y="0"/><use xlink:href="#L1_10" x="-350" y="350"/><use xlink:href="#L1_10" x="0" y="350"/><use xlink:href="#L1_10" x="350" y="350"/></pattern><rect x="0" y="0" width="100%" height="100%" fill="url(#pattern_L1_10)"/></g><g fi:class="KUsePattern" opacity="0.7"><pattern id="pattern_L1_11" width="350" height="350" patternUnits="userSpaceOnUse"><use xlink:href="#L1_11" x="-350" y="-350"/><use xlink:href="#L1_11" x="0" y="-350"/><use xlink:href="#L1_11" x="350" y="-350"/><use xlink:href="#L1_11" x="-350" y="0"/><use xlink:href="#L1_11" x="0" y="0"/><use xlink:href="#L1_11" x="350" y="0"/><use xlink:href="#L1_11" x="-350" y="350"/><use xlink:href="#L1_11" x="0" y="350"/><use xlink:href="#L1_11" x="350" y="350"/></pattern><rect x="0" y="0" width="100%" height="100%" fill="url(#pattern_L1_11)"/></g><g fi:class="KUsePattern" transform="matrix(1 0 0 1 20 20)"><pattern id="pattern_UNKNOWN" width="350" height="350" patternUnits="userSpaceOnUse"><use xlink:href="#UNKNOWN" x="-350" y="-350"/><use xlink:href="#UNKNOWN" x="0" y="-350"/><use xlink:href="#UNKNOWN" x="350" y="-350"/><use xlink:href="#UNKNOWN" x="-350" y="0"/><use xlink:href="#UNKNOWN" x="0" y="0"/><use xlink:href="#UNKNOWN" x="350" y="0"/><use xlink:href="#UNKNOWN" x="-350" y="350"/><use xlink:href="#UNKNOWN" x="0" y="350"/><use xlink:href="#UNKNOWN" x="350" y="350"/></pattern><rect x="0" y="0" width="100%" height="100%" fill="url(#pattern_UNKNOWN)"/></g><g fi:class="KUsePattern" transform="matrix(1 0 0 1 20 20)" opacity="0.8"><pattern id="pattern_UNKNOWN" width="350" height="350" patternUnits="userSpaceOnUse"><use xlink:href="#UNKNOWN" x="-350" y="-350"/><use xlink:href="#UNKNOWN" x="0" y="-350"/><use xlink:href="#UNKNOWN" x="350" y="-350"/><use xlink:href="#UNKNOWN" x="-350" y="0"/><use xlink:href="#UNKNOWN" x="0" y="0"/><use xlink:href="#UNKNOWN" x="350" y="0"/><use xlink:href="#UNKNOWN" x="-350" y="350"/><use xlink:href="#UNKNOWN" x="0" y="350"/><use xlink:href="#UNKNOWN" x="350" y="350"/></pattern><rect x="0" y="0" width="100%" height="100%" fill="url(#pattern_UNKNOWN)"/></g><g fi:class="KUsePattern" transform="matrix(1 0 0 1 20 20)" opacity="0.67"><pattern id="pattern_UNKNOWN" width="350" height="350" patternUnits="userSpaceOnUse"><use xlink:href="#UNKNOWN" x="-350" y="-350"/><use xlink:href="#UNKNOWN" x="0" y="-350"/><use xlink:href="#UNKNOWN" x="350" y="-350"/><use xlink:href="#UNKNOWN" x="-350" y="0"/><use xlink:href="#UNKNOWN" x="0" y="0"/><use xlink:href="#UNKNOWN" x="350" y="0"/><use xlink:href="#UNKNOWN" x="-350" y="350"/><use xlink:href="#UNKNOWN" x="0" y="350"/><use xlink:href="#UNKNOWN" x="350" y="350"/></pattern><rect x="0" y="0" width="100%" height="100%" fill="url(#pattern_UNKNOWN)"/></g></svg>